<svg width="1772" height="25" viewBox="0 0 1772 25" fill="none" xmlns="http://www.w3.org/2000/svg">
<g clip-path="url(#clip0_255_1691)">
<g clip-path="url(#clip1_255_1691)">
<path d="M1768.16 17.604C1765.34 17.3669 1762.91 17.7589 1760.43 18.2498C1757.31 18.8688 1754.38 19.7657 1750.68 19.3536C1748.2 19.0806 1748.3 18.1766 1745.41 18.6255C1743.85 18.8685 1742.86 20.0545 1741.16 20.3934C1736.49 21.3383 1739.07 20.1474 1735.85 19.8773C1732.81 19.6223 1730.8 20.8642 1727.6 21.0411C1723.27 21.2831 1724.05 20.1941 1721.37 19.455C1718.72 18.724 1716.41 19.2619 1713.78 19.6379C1710.82 20.0618 1709.83 20.0378 1706.88 19.9087C1700.32 19.6216 1693.78 19.4374 1687.52 18.4553C1684.48 17.9712 1682.07 17.2482 1679.03 16.8851C1675.79 16.4921 1673.92 16.253 1671.05 15.347C1668.15 14.4249 1667.85 14.2659 1663.84 14.3018C1660.24 14.3347 1657.3 14.6377 1654.62 13.5076C1650.51 11.7715 1652.45 11.7426 1646.47 12.4445C1644.5 12.6734 1638.98 13.0913 1637.2 12.5043C1633.55 11.3022 1636.33 10.4082 1631.06 10.1031C1628.11 9.93508 1624.04 10.564 1621.26 10.1849C1618.69 9.83388 1618.74 8.28688 1615.51 8.32382C1613.17 8.35377 1611.57 10.3447 1609.33 10.7867C1605.75 11.4926 1603.05 10.8146 1600.11 10.1225C1595.54 9.0484 1595.27 9.3414 1590.46 9.9343C1586.04 10.4752 1585.11 10.1092 1583.16 8.45014C1581.14 6.7371 1582.51 6.62913 1577.36 6.96502C1575.78 7.06899 1575.67 7.48499 1573.54 7.44795C1573.07 7.03194 1572.3 6.79192 1571.23 6.7339C1561.09 5.67169 1547.56 7.34341 1538.15 8.96821C1532.1 10.0161 1526.26 10.964 1519.88 11.6178C1515.23 12.0967 1509.35 11.6096 1504.99 12.2865C1501.45 12.8344 1500.16 13.7854 1495.76 13.4743C1491.06 13.1442 1493.38 13.4693 1491.95 11.7873C1491.19 10.9012 1492.22 10.0203 1489.61 9.4332C1486.97 8.83615 1484.58 9.8721 1482.29 10.3451C1473.05 12.2439 1478.35 8.03197 1472.77 7.50885C1470.05 7.2538 1461.98 10.3166 1462.63 6.91764C1460.14 6.61159 1458.12 6.77755 1455.67 6.9605C1455.22 7.38149 1454.46 7.62947 1453.39 7.70145C1452.03 7.56642 1450.81 7.3054 1449.74 6.91338C1445.28 6.44628 1440.2 8.35618 1436.17 7.4651C1435.34 7.27908 1434.21 6.37405 1433.51 6.06204C1429.4 6.81696 1427.16 7.50091 1422.39 7.58881C1418.54 7.65873 1411.29 9.70958 1408.35 7.75352C1405.59 8.22946 1400.02 9.30234 1397.09 8.65928C1393.2 7.8062 1396.04 5.04626 1393.41 3.48321C1389.82 1.34913 1385.69 2.45305 1381.21 3.24296C1378.4 3.7349 1375.55 3.79384 1372.64 3.45378C1369.91 3.13572 1367.24 2.42667 1364.41 2.32061C1362.39 2.24256 1360.75 2.65753 1359.46 1.7795C1358.72 1.28249 1358.8 0.93649 1357.27 1.02646C1356.39 1.07844 1355.88 1.36243 1354.92 1.14741C1354.32 1.0064 1354.27 0.733396 1353.54 0.631381C1352.85 0.537367 1351.61 0.636341 1350.93 0.708327C1349.41 0.872295 1348.05 1.38427 1346.41 1.14423C1344.55 0.873195 1344.91 -0.175798 1342.56 0.0671531C1340.98 0.232121 1339.43 1.06209 1337.54 0.588049C1336.93 0.437037 1336.89 0.178036 1336.15 0.0730203C1335.56 -0.00699203 1334.17 0.0469792 1333.58 0.128967C1331.86 0.361931 1330.41 1.3749 1328.36 1.22286C1326.85 1.10783 1325.76 0.274805 1324.37 0.557776C1322.98 0.836747 1322.59 1.54874 1321.83 2.04172C1321.25 2.41771 1320.48 2.7157 1319.35 2.61167C1318.47 2.53265 1318.52 2.13465 1317.43 2.35563C1316.22 2.60261 1316.18 3.73261 1314.36 3.37857C1313.75 3.25756 1313.77 2.89856 1312.98 2.84554C1312.12 2.78552 1311.27 3.1755 1310.84 3.4225C1310.18 3.79148 1309.67 4.43247 1308.47 4.56245C1307.41 4.67742 1306.76 4.18341 1305.83 4.22939C1304.96 4.27437 1304.36 5.04636 1303.93 5.31635C1302.81 6.01733 1300.09 6.23027 1299.41 7.03726C1299.07 7.43125 1299.36 8.16726 1298.15 8.40623C1297.27 8.58321 1296.41 8.1672 1295.42 8.15117C1293.88 8.12614 1293.5 8.35114 1292.34 8.72011C1291.57 8.9661 1290.89 9.37708 1289.9 9.22906C1289.4 9.15005 1288.74 8.67404 1288.31 8.51303C1287.2 8.091 1285.56 7.89797 1284.06 7.84494C1283.55 6.98293 1284.8 5.65796 1283.84 4.87594C1283.51 4.60993 1282.58 4.45591 1282.18 4.2079C1281.47 3.77989 1282.07 3.2829 1280.57 3.62487C1279.9 3.77885 1279.22 4.28484 1278.81 4.54183C1278.07 5.00582 1277.64 4.99081 1276.7 5.29579C1275.63 5.64576 1275.02 6.28275 1274.31 6.76174C1273.54 7.28172 1272.61 7.6477 1271.68 8.10168C1270.64 8.60866 1269.82 9.09964 1268.5 9.48762C1267.17 9.88059 1265.69 10.1596 1264.45 10.6055C1262.85 11.1745 1261.06 11.3785 1259.07 11.2214C1258.26 10.7954 1258.01 10.5554 1256.79 10.5124C1256.31 10.4964 1255.6 10.5283 1255.11 10.5613C1254.51 10.6053 1254.3 10.6023 1253.74 10.7353C1252.03 11.1453 1250.95 12.0373 1249.73 12.6662C1250.63 11.9322 1250.78 10.0412 1247.87 10.3802C1247.35 10.4382 1247.17 10.6992 1246.62 10.6992C1245.99 10.6991 1245.98 10.4031 1245.35 10.3691C1244.93 10.3341 1244.55 10.3601 1244.19 10.4561C1242.92 10.5711 1241.96 11.3461 1240.81 11.472C1239.7 11.593 1239.4 11.218 1238.25 11.217C1237.22 11.212 1236.33 11.4789 1235.5 11.7059C1234.37 12.0109 1234.73 12.2019 1233.73 11.7899C1233 11.4909 1233.32 11.1539 1231.97 11.2759C1231.06 11.3588 1230.51 12.1318 1229.38 12.0338C1228.42 10.9148 1226.44 11.8927 1224.73 11.8057C1223.13 11.7207 1221.97 11.3017 1220.21 11.5596C1219.44 11.6736 1219.07 11.9866 1218.33 12.0766C1217.72 12.1456 1216.98 12.0015 1216.36 12.0495C1214.43 12.1905 1212.65 12.8815 1210.52 12.6304C1209.7 12.5354 1209.65 12.2984 1208.65 12.3194C1208.14 12.3274 1207.12 12.5243 1206.67 12.6203C1205.48 12.8793 1204.27 13.3863 1202.86 13.4753C1201.48 13.5612 1200.61 12.9192 1199.55 12.9282C1198.86 12.9372 1199.04 13.1292 1198.36 13.1892C1196.75 13.3401 1194.99 13.2011 1194.97 12.3681C1194.19 12.4681 1193.52 12.9711 1192.52 12.932C1191.19 12.878 1191.46 12.26 1189.98 12.313C1188.68 12.359 1188.18 12.883 1186.75 12.9019C1185.73 12.9159 1185.1 12.8759 1184.15 13.0939C1183.23 13.3038 1182.94 13.7588 1182.11 13.9528C1181.08 14.1928 1180.82 13.8078 1180.16 13.7878C1178.26 13.7277 1178.11 14.5017 1176.62 14.9197C1174.94 15.3907 1175.86 14.7487 1174.51 14.6007C1173.86 14.5297 1173.46 14.8776 1173.06 15.0556C1171.86 15.6056 1170.74 16.3646 1169.38 16.8176C1167.02 17.5995 1163.3 16.1394 1162.79 15.1274C1162.56 14.6674 1162.73 14.2124 1162.44 13.7454C1161.97 13.0034 1161.53 12.3144 1161.4 11.5424L1154.98 11.5163C1153.48 11.9242 1151.71 12.4802 1150.88 12.6852C1149.66 12.9882 1146.37 14.0541 1144.9 14.0761C1141.19 14.131 1139.51 12.7219 1135.53 12.8789C1128.18 13.1707 1125.45 16.3416 1117.8 16.1985C1113.59 16.1214 1115.48 14.8514 1110.19 16.0813C1109 16.3593 1108.12 16.6953 1107.33 17.0553C1105.32 16.8482 1103.41 16.6592 1101.91 16.6002C1097.01 16.4111 1093.01 16.874 1089.93 17.7369C1089.46 17.1799 1089.15 16.7539 1086.55 16.3648C1084.07 15.9918 1080.25 16.5027 1077.86 16.7287C1074.94 17.0046 1075.27 17.9736 1070.95 17.7965C1062.56 17.4503 1056.46 14.8882 1047.56 16.238C1044.28 16.74 1041.45 17.8069 1038.15 18.2588C1033.22 18.9277 1033.67 17.7317 1029.95 16.9457C1025.96 16.1016 1024.9 17.8246 1022.02 18.3235C1018.54 18.9324 1013.12 18.5693 1008.89 18.4802C1006.61 18.2872 1004.3 18.1741 1001.98 18.1271C1001.62 18.0521 1001.23 17.9691 1000.78 17.8581C999.242 17.487 999.546 16.918 997.494 16.733C994.49 16.4669 994.153 17.4149 991.749 17.6729C989.388 17.9258 986.57 17.4778 984.354 17.4217C983.958 16.9427 983.191 16.7737 982.044 16.9167C980.755 17.1456 979.591 17.4596 978.55 17.8586C977.022 18.1846 975.123 18.2805 973.345 18.4455C971.316 17.8905 969.117 17.4934 966.752 17.1564C960.586 16.2762 953.751 16.8571 947.965 18.095C946.941 18.1549 945.827 18.2739 944.552 18.4739C940.533 19.1038 937.807 19.4528 934.18 18.2067C931.924 17.4336 930.754 16.2136 927.88 15.7655C922.404 14.9124 914.595 17.7933 909.381 18.3812C903.941 18.9951 896.212 18.4559 891.403 17.2108C888.301 16.4067 887.474 15.3867 887.248 13.8967C887.206 13.6187 887.214 10.1387 886.95 10.1897C883.056 10.9406 879.745 11.5726 876.18 9.91848C873.659 8.74642 876.869 8.34649 871.926 8.60339C869.429 8.73334 867.572 9.7643 864.936 9.17724C862.932 8.7292 862.476 7.53319 860.72 6.92316C857.86 5.9321 855.137 6.55804 852.22 7.15798C847.921 8.03989 844.378 8.46882 839.638 7.97772C837.486 7.75267 836.159 7.42665 834.351 8.15361C833.683 8.4246 831.335 11.4255 831.683 11.4506C829.764 11.3135 829.532 10.0325 827.096 10.4005C826.423 11.5844 826.123 13.9374 822.913 14.4354C822.295 14.5314 819.839 14.2973 819.095 14.2833C815.353 14.2092 815.692 14.7862 813.004 15.5452C808.036 16.9421 807.029 12.274 804.543 11.502C802.453 10.8529 800.195 11.3829 798.099 11.7179C794.675 12.2618 792.446 11.9267 788.932 11.7837C787.063 11.7036 784.71 12.0036 782.942 11.8065C781.746 11.6715 780.651 10.8965 779.47 10.8965C777.064 10.9094 774.657 10.9294 772.253 10.9593C768.479 10.8972 767.284 10.2822 763.762 10.0831C761.201 9.94109 758.84 10.277 756.323 9.95899C756.975 6.583 748.99 9.62284 746.234 9.95878C743.076 10.3437 740.983 10.0227 738.171 10.6906C734.621 11.5365 729.727 14.4374 724.898 13.5183C721.76 12.9233 724.047 10.9553 719.329 10.8362C715.225 10.7331 712.209 12.7961 707.658 12.645C704.573 12.5449 703.111 11.5739 700.02 11.6928C696.119 11.8357 694.657 14.0107 690.225 13.5006C687.865 13.2276 687.188 12.1876 685.047 11.8985C681.814 13.7314 672.707 15.4963 672.697 11.8323C665.62 12.3521 664.677 14.7341 658.927 11.895C656.754 12.2939 654.174 13.2259 651.792 13.4828C645.258 14.1817 647.157 12.2577 643.575 11.0587C638.683 9.42255 632.595 12.2254 629.839 13.7094C623.413 17.1752 620.318 13.4492 613.354 13.264C613.201 11.875 613.131 10.66 609.125 10.8729C606.596 11.0089 606.811 12.1999 603.87 11.6448C601.991 11.2908 602.35 10.3138 599.585 10.0307C598.25 10.0857 596.913 10.1207 595.576 10.1417C592.812 9.8056 593.41 9.07161 591.85 8.40658C589.556 7.43253 591.229 8.13557 587.935 7.5945C586.718 7.72347 585.563 7.66745 584.47 7.42043C581.869 6.69237 583.289 5.3984 579.923 4.85733C577.445 4.46028 573.093 4.95319 570.532 5.19114C565.855 5.63104 561.322 6.59995 557.65 7.91787C555.933 8.53383 543.754 13.7806 544.923 10.2556C542.833 10.3386 541.042 12.5205 541.197 12.5205C538.95 12.5155 538.085 11.9065 537.192 11.0304C531.577 11.5293 535.326 15.3624 528.462 14.4333C526.982 16.2782 528.546 19.0713 522.802 19.6661C518.713 20.0901 513.232 18.7069 509.427 18.2269C506.425 17.8478 503.515 17.6977 500.448 17.4927C497.145 17.2776 494.296 15.6406 490.834 16.3625C488.542 16.8394 487.803 18.0254 485.065 18.2454C481.414 18.5333 477.127 17.2422 474.618 16.2501C469.37 14.179 466.216 12.043 458.417 12.0378C452.926 12.0337 447.685 12.9976 442.201 12.9875C439.553 12.9824 437.019 12.7374 434.784 12.1023C432.778 11.5363 430.083 9.22122 427.902 9.32718C427.181 10.5772 426.527 12.0681 424.391 13.0551C421.978 14.1691 421.67 13.509 419.314 12.972C416.484 12.3289 415.409 13.2119 412.641 13.1869C409.591 13.1598 410.089 11.6968 407.738 11.5668C405.024 11.4157 404.626 13.0647 402.147 12.0966C401.268 11.7556 399.965 10.3336 399.569 9.82959C398.974 9.07758 399.534 7.56059 396.736 7.60153C395.215 7.6195 394.36 9.01248 392.822 9.18745C388.501 9.67336 389.447 6.64638 389.051 5.48537C388.884 4.99937 388.251 3.43535 386.375 3.73132C384.955 3.95129 385.27 4.76829 384.806 5.23728C382.886 7.17524 379.471 8.79917 378.029 10.8301C377.629 11.3931 377.797 12.6091 376.79 13.0431C375.581 13.5611 373.542 13.436 373.004 12.697C371.062 13.494 372.411 15.179 369.186 15.633C368.539 15.0139 367.498 14.5189 366.186 14.3319C365.757 15.8889 364.85 16.8409 363.402 18.2438C362.512 19.1058 362.568 20.6208 360.63 20.8768C359.894 20.8408 359.167 20.7868 358.444 20.7237C356.401 20.2127 355.004 18.4327 353.268 17.7916C346.56 15.3145 345.167 17.9245 340.119 19.2574C337.499 19.2423 334.875 19.3062 332.269 19.4322C330.58 19.0042 329.059 18.3191 327.411 17.6461C325.193 16.742 324.238 16.252 321.379 16.314C318.693 16.3699 316.483 17.3949 313.569 16.8358C310.908 16.3227 310.951 15.3748 309.306 14.3497C308.039 14.6337 304.845 15.7036 303.521 15.7706C301.139 15.8935 301.189 15.6125 299.944 14.4255C299.03 13.5565 299.288 13.5915 297.977 13.1045C296.899 12.7045 295.826 12.2984 294.743 11.8644C292.86 11.1084 290.717 10.7983 288.773 10.3583C286.08 9.74923 283.829 9.45619 281.145 8.93513C278.516 8.42708 276.041 7.11403 273.434 6.47397C270.838 5.83692 268.245 5.93787 265.635 5.54081C262.861 5.11675 260.368 3.6177 257.678 2.85265C255.174 2.14259 253.103 0.269551 250.427 0.302495C249.479 0.313476 248.393 0.152453 247.457 0.276434C246.438 0.412413 246.035 0.883404 245.293 1.06739C244.357 1.29837 243.468 1.16935 242.534 1.47533C241.655 1.76631 241.093 2.7893 240.374 3.05429C238.543 3.72925 236.48 2.75421 234.641 3.20017C233.75 3.41515 233.665 4.06915 232.775 4.28513C231.886 4.50211 230.691 4.16609 229.773 4.21207C227.35 4.33502 225.408 5.23698 222.837 5.21492C218.764 5.17884 215.82 5.80378 212.066 7.1887C209.849 8.00765 208.397 9.23862 206.383 10.4326C204.896 11.3146 203.168 11.7745 201.465 12.3455C199.903 12.8684 198.089 13.4024 196.327 13.8514C195.288 14.1174 194.307 13.7883 193.326 14.0163C192.441 14.2223 192.356 14.8943 191.482 15.1093C190.32 15.3962 188.94 15.0042 187.693 15.2772C183.976 16.0921 181.573 18.1741 177.697 17.308C176.409 17.021 175.044 16.4789 173.716 16.4489C171.924 16.4069 170.598 17.4278 168.891 17.6488C167.278 17.8578 164.882 17.6637 163.32 17.4687C163.966 14.0567 157.425 17.2516 155.219 17.4865C154.16 17.6005 153.032 17.6705 151.985 17.4335C151.292 17.2784 150.296 16.4554 149.697 16.4184C148.395 16.3364 145.851 17.4933 144.469 17.9793C141.114 19.1602 139.997 23.1342 136.371 23.9581C132.586 24.8181 127.44 23.9079 123.532 23.9079C119.269 23.9078 115.006 23.8977 110.743 23.9076C109.564 23.9106 107.889 24.2315 106.757 23.9575C105.865 23.7435 105.785 23.0815 104.891 22.8735C103.941 22.6495 102.852 23.1384 101.89 22.9734C100.795 22.7854 100.034 22.0754 98.939 21.8904C97.597 21.6623 96.367 22.0783 95.004 21.7213C93.834 21.4152 93.324 21.0022 92.053 20.9332C90.131 20.8292 88.0661 20.8341 86.2011 21.1751C85.34 21.6651 84.413 21.9391 83.421 21.995C82.667 21.968 81.911 21.932 81.158 21.886C80.287 22.1 80.194 22.758 79.315 22.9729C77.613 23.3909 75.134 22.9229 73.361 22.9228C69.396 22.9227 64.979 23.4196 61.528 21.9676C59.803 21.2425 58.3591 20.1435 56.6611 19.2335C55.1771 18.4364 53.8561 17.0304 52.2561 16.4844C50.6182 15.9264 49.2141 16.0973 47.5942 15.1703C45.1372 13.7662 42.7242 12.3242 39.8162 12.4161C36.0112 12.538 32.3332 13.912 28.5052 14.0259C24.8142 14.1338 21.8802 15.0468 18.3292 15.7297C16.3281 16.1166 14.2732 15.6256 12.3142 15.9886C10.3411 16.3515 8.15413 17.2205 6.19812 17.7874C5.20111 18.0774 3.4661 18.6834 2.51009 18.7924C0.819089 18.9863 1.6081 18.6143 0.346103 18.2413C-1.57289 17.6743 -3.86186 16.5922 -5.55686 16.2562C-10.3458 15.3051 -15.0678 15.018 -20.0938 15.0529C-23.4258 15.0758 -26.3558 13.6178 -29.4008 12.4287C-32.2317 11.3216 -34.4198 11.5056 -37.4408 11.6195C-44.7418 11.8974 -51.9217 9.49622 -59.1897 11.1821C-67.9808 13.2209 -75.1467 11.2267 -84.0368 12.0486C-91.5548 12.7454 -96.2749 16.4243 -103.567 13.0012C-109.25 10.331 -109.473 6.82903 -117.315 8.37187C-119.97 8.89281 -119.963 8.45281 -122.199 7.97776C-124.325 7.53272 -125.242 7.7477 -127.395 8.00966C-130.771 8.42559 -132.772 6.94455 -135.999 6.98648C-139.841 7.0374 -139.347 8.57141 -141.21 9.59937C-142.834 7.60634 -145.013 6.42529 -148 5.81723L-148 24.9192L1772.02 24.9591L1772.02 18.2061C1770.88 18.012 1769.77 17.736 1768.16 17.604Z" fill="white"/>
</g>
</g>
<defs>
<clipPath id="clip0_255_1691">
<rect width="1772" height="25" fill="white"/>
</clipPath>
<clipPath id="clip1_255_1691">
<rect width="1920.02" height="24.9591" fill="white" transform="translate(-148)"/>
</clipPath>
</defs>
</svg>
