<svg width="1772" height="25" viewBox="0 0 1772 25" fill="none" xmlns="http://www.w3.org/2000/svg">
<g clip-path="url(#clip0_255_1695)">
<path d="M3.83789 7.39618C6.66488 7.63324 9.08889 7.24129 11.5669 6.75034C14.6919 6.13141 17.6189 5.23447 21.3229 5.64655C23.8019 5.9196 23.7009 6.8236 26.5899 6.37465C28.1459 6.13169 29.14 4.94571 30.837 4.60674C35.514 3.66184 32.932 4.85278 36.149 5.12285C39.193 5.37791 41.1959 4.13596 44.3969 3.95902C48.7319 3.71711 47.948 4.8061 50.628 5.54515C53.2839 6.27621 55.5879 5.73825 58.2229 5.36231C61.1789 4.93837 62.1669 4.96239 65.1239 5.09145C71.6809 5.37859 78.2169 5.56272 84.4779 6.54485C87.5209 7.02891 89.9299 7.75196 92.9669 8.11502C96.2149 8.50809 98.0798 8.74713 100.95 9.65319C103.855 10.5753 104.155 10.7343 108.156 10.6983C111.763 10.6654 114.701 10.3625 117.378 11.4925C121.488 13.2286 119.552 13.2576 125.534 12.5557C127.503 12.3267 133.024 11.9089 134.803 12.4959C138.449 13.698 135.67 14.5919 140.939 14.897C143.893 15.0651 147.962 14.4362 150.741 14.8152C153.308 15.1663 153.261 16.7133 156.493 16.6763C158.831 16.6464 160.428 14.6554 162.669 14.2135C166.249 13.5075 168.946 14.1856 171.892 14.8777C176.457 15.9518 176.734 15.6588 181.541 15.0659C185.956 14.5249 186.891 14.891 188.844 16.55C190.865 18.263 189.49 18.371 194.64 18.0351C196.219 17.9312 196.331 17.5152 198.458 17.5522C198.932 17.9682 199.697 18.2082 200.767 18.2663C210.915 19.3285 224.44 17.6567 233.847 16.0319C239.9 14.9841 245.736 14.0362 252.121 13.3823C256.767 12.9034 262.649 13.3905 267.013 12.7136C270.552 12.1657 271.84 11.2147 276.236 11.5258C280.937 11.8559 278.622 11.5309 280.054 13.2129C280.809 14.0989 279.781 14.9799 282.389 15.5669C285.026 16.164 287.418 15.128 289.712 14.6551C298.946 12.7563 293.649 16.9682 299.233 17.4913C301.951 17.7463 310.024 14.6835 309.367 18.0825C311.857 18.3885 313.884 18.2226 316.333 18.0396C316.782 17.6186 317.543 17.3707 318.614 17.2987C319.975 17.4337 321.192 17.6947 322.263 18.0868C326.722 18.5539 331.8 16.644 335.826 17.535C336.662 17.7211 337.791 18.6261 338.494 18.9381C342.596 18.1832 344.841 17.4992 349.607 17.4113C353.463 17.3414 360.711 15.2906 363.651 17.2466C366.412 16.7707 371.977 15.6978 374.906 16.3409C378.796 17.1939 375.963 19.9539 378.589 21.5169C382.178 23.651 386.307 22.5471 390.795 21.7572C393.605 21.2652 396.449 21.2063 399.362 21.5464C402.086 21.8644 404.763 22.5735 407.588 22.6795C409.609 22.7576 411.248 22.3426 412.538 23.2206C413.281 23.7176 413.199 24.0636 414.727 23.9737C415.612 23.9217 416.12 23.6377 417.076 23.8527C417.681 23.9937 417.731 24.2667 418.463 24.3688C419.146 24.4628 420.394 24.3638 421.066 24.2918C422.593 24.1278 423.951 23.6159 425.593 23.8559C427.448 24.1269 427.091 25.1759 429.443 24.933C431.016 24.768 432.574 23.938 434.459 24.4121C435.067 24.5631 435.107 24.8221 435.848 24.9271C436.442 25.0071 437.827 24.9532 438.418 24.8712C440.136 24.6382 441.589 23.6252 443.641 23.7773C445.146 23.8923 446.237 24.7253 447.626 24.4424C449.015 24.1634 449.408 23.4514 450.172 22.9584C450.753 22.5824 451.518 22.2844 452.652 22.3885C453.529 22.4675 453.476 22.8655 454.566 22.6445C455.785 22.3975 455.817 21.2675 457.641 21.6216C458.255 21.7426 458.232 22.1016 459.022 22.1546C459.878 22.2146 460.731 21.8246 461.164 21.5776C461.818 21.2086 462.333 20.5677 463.532 20.4377C464.593 20.3227 465.241 20.8167 466.173 20.7707C467.037 20.7258 467.643 19.9538 468.074 19.6838C469.193 18.9828 471.914 18.7699 472.594 17.9629C472.928 17.5689 472.643 16.8329 473.851 16.5939C474.735 16.4169 475.594 16.8329 476.585 16.849C478.118 16.874 478.502 16.649 479.66 16.28C480.432 16.034 481.113 15.623 482.096 15.7711C482.6 15.8501 483.258 16.3261 483.69 16.4871C484.802 16.9091 486.44 17.1022 487.938 17.1552C488.448 18.0172 487.201 19.3422 488.16 20.1242C488.489 20.3902 489.416 20.5442 489.82 20.7922C490.532 21.2202 489.927 21.7172 491.43 21.3753C492.102 21.2213 492.777 20.7153 493.186 20.4583C493.935 19.9943 494.356 20.0093 495.296 19.7043C496.373 19.3544 496.978 18.7174 497.691 18.2384C498.46 17.7184 499.394 17.3524 500.325 16.8984C501.363 16.3915 502.181 15.9005 503.502 15.5125C504.83 15.1195 506.309 14.8406 507.554 14.3946C509.148 13.8256 510.937 13.6217 512.926 13.7787C513.743 14.2047 513.987 14.4447 515.214 14.4877C515.695 14.5038 516.404 14.4718 516.888 14.4388C517.491 14.3948 517.704 14.3978 518.258 14.2648C519.975 13.8548 521.047 12.9629 522.267 12.3339C521.372 13.0679 521.223 14.9589 524.128 14.6199C524.646 14.5619 524.828 14.3009 525.376 14.301C526.007 14.301 526.024 14.597 526.647 14.631C527.066 14.666 527.455 14.64 527.811 14.544C529.085 14.429 530.037 13.6541 531.186 13.5281C532.305 13.4071 532.599 13.7821 533.749 13.7831C534.777 13.7882 535.666 13.5212 536.502 13.2942C537.626 12.9892 537.268 12.7982 538.274 13.2102C538.997 13.5092 538.676 13.8462 540.028 13.7243C540.936 13.6413 541.487 12.8683 542.617 12.9663C543.582 14.0853 545.564 13.1074 547.267 13.1944C548.873 13.2794 550.033 13.6985 551.792 13.4405C552.559 13.3265 552.931 13.0135 553.675 12.9235C554.285 12.8546 555.017 12.9986 555.643 12.9506C557.566 12.8096 559.347 12.1187 561.482 12.3697C562.303 12.4647 562.349 12.7017 563.353 12.6807C563.86 12.6728 564.882 12.4758 565.332 12.3798C566.524 12.1208 567.729 11.6138 569.145 11.5249C570.523 11.4389 571.393 12.0809 572.448 12.0719C573.136 12.0629 572.965 11.8709 573.636 11.811C575.249 11.66 577.008 11.799 577.033 12.632C577.813 12.532 578.485 12.0291 579.479 12.0681C580.81 12.1221 580.538 12.7401 582.024 12.6871C583.321 12.6412 583.823 12.1172 585.255 12.0982C586.272 12.0842 586.905 12.1242 587.848 11.9063C588.768 11.6963 589.056 11.2413 589.892 11.0473C590.917 10.8073 591.183 11.1923 591.837 11.2123C593.736 11.2724 593.889 10.4984 595.381 10.0804C597.057 9.60944 596.137 10.2514 597.488 10.3994C598.145 10.4705 598.538 10.1225 598.937 9.94448C600.145 9.3945 601.261 8.63553 602.625 8.18255C604.981 7.4006 608.705 8.86068 609.213 9.87269C609.441 10.3327 609.267 10.7877 609.562 11.2547C610.028 11.9967 610.472 12.6857 610.605 13.4577L617.02 13.4839C618.516 13.0759 620.291 12.5199 621.116 12.3149C622.336 12.012 625.63 10.946 627.102 10.9241C630.808 10.8691 632.494 12.2782 636.471 12.1213C643.825 11.8294 646.552 8.65846 654.203 8.80162C658.414 8.87871 656.525 10.1487 661.807 8.91878C663.003 8.6408 663.884 8.30482 664.666 7.94484C666.683 8.15188 668.59 8.34092 670.092 8.39995C674.995 8.58905 678.987 8.12613 682.072 7.2632C682.539 7.82021 682.855 8.24621 685.453 8.63527C687.934 9.00832 691.754 8.4974 694.14 8.27145C697.059 7.99551 696.734 7.0265 701.055 7.20359C709.437 7.54976 715.543 10.1119 724.437 8.76207C727.717 8.26014 730.549 7.1932 733.854 6.74127C738.78 6.07237 738.33 7.26836 742.053 8.05443C746.044 8.89852 747.105 7.17554 749.976 6.6766C753.462 6.06767 758.885 6.43078 763.108 6.51987C765.395 6.71292 767.703 6.82597 770.016 6.87301C770.385 6.94802 770.774 7.03103 771.223 7.14204C772.758 7.51307 772.454 8.08206 774.506 8.2671C777.51 8.53317 777.847 7.58518 780.251 7.32722C782.612 7.07427 785.43 7.52233 787.646 7.57838C788.042 8.05739 788.809 8.2264 789.956 8.08342C791.245 7.85445 792.409 7.54048 793.45 7.1415C794.978 6.81553 796.877 6.71957 798.655 6.5546C800.684 7.10965 802.883 7.50669 805.248 7.84374C811.414 8.72387 818.249 8.14301 824.035 6.90513C825.059 6.84515 826.173 6.72617 827.448 6.5262C831.467 5.89628 834.193 5.54734 837.82 6.79341C840.076 7.56646 841.246 8.78649 844.12 9.23454C849.596 10.0877 857.405 7.20682 862.619 6.61893C868.059 6.00504 875.788 6.5442 880.597 7.7893C883.699 8.59336 884.526 9.61338 884.752 11.1034C884.794 11.3814 884.786 14.8614 885.05 14.8104C888.944 14.0595 892.255 13.4275 895.82 15.0816C898.341 16.2537 895.131 16.6536 900.074 16.3967C902.571 16.2668 904.428 15.2358 907.064 15.8228C909.068 16.2709 909.524 17.4669 911.28 18.0769C914.14 19.068 916.863 18.442 919.78 17.8421C924.079 16.9602 927.622 16.5313 932.362 17.0224C934.514 17.2474 935.841 17.5734 937.649 16.8465C938.317 16.5755 940.665 13.5745 940.317 13.5495C942.236 13.6866 942.468 14.9676 944.904 14.5996C945.577 13.4156 945.877 11.0626 949.087 10.5647C949.705 10.4687 952.161 10.7028 952.905 10.7168C956.647 10.7909 956.308 10.2139 958.996 9.45492C963.964 8.05802 964.971 12.726 967.457 13.4981C969.547 14.1471 971.805 13.6172 973.901 13.2822C977.325 12.7383 979.554 13.0733 983.068 13.2164C984.937 13.2965 987.29 12.9965 989.058 13.1935C990.254 13.3286 991.349 14.1036 992.53 14.1036C994.936 14.0907 997.343 14.0707 999.747 14.0408C1003.52 14.1028 1004.72 14.7179 1008.24 14.9169C1010.8 15.059 1013.16 14.723 1015.68 15.0411C1015.02 18.4171 1023.01 15.3772 1025.77 15.0413C1028.92 14.6564 1031.02 14.9774 1033.83 14.3095C1037.38 13.4635 1042.27 10.5626 1047.1 11.4817C1050.24 12.0768 1047.95 14.0448 1052.67 14.1639C1056.77 14.2669 1059.79 12.204 1064.34 12.3551C1067.43 12.4552 1068.89 13.4262 1071.98 13.3073C1075.88 13.1643 1077.34 10.9894 1081.77 11.4995C1084.13 11.7725 1084.81 12.8125 1086.95 13.1016C1090.19 11.2686 1099.29 9.50382 1099.3 13.1678C1106.38 12.648 1107.32 10.266 1113.07 13.1051C1115.25 12.7061 1117.83 11.7742 1120.21 11.5172C1126.74 10.8184 1124.84 12.7423 1128.42 13.9414C1133.32 15.5775 1139.4 12.7746 1142.16 11.2907C1148.59 7.82483 1151.68 11.5509 1158.65 11.736C1158.8 13.125 1158.87 14.34 1162.87 14.1271C1165.4 13.9912 1165.19 12.8002 1168.13 13.3552C1170.01 13.7093 1169.65 14.6863 1172.41 14.9693C1173.75 14.9144 1175.09 14.8794 1176.42 14.8584C1179.19 15.1945 1178.59 15.9285 1180.15 16.5935C1182.44 17.5675 1180.77 16.8645 1184.06 17.4056C1185.28 17.2766 1186.44 17.3326 1187.53 17.5796C1190.13 18.3077 1188.71 19.6017 1192.08 20.1427C1194.55 20.5398 1198.91 20.0469 1201.47 19.8089C1206.14 19.369 1210.68 18.4001 1214.35 17.0822C1216.07 16.4662 1228.25 11.2195 1227.08 14.7445C1229.17 14.6615 1230.96 12.4795 1230.8 12.4795C1233.05 12.4846 1233.91 13.0936 1234.81 13.9696C1240.42 13.4707 1236.67 9.63765 1243.54 10.5668C1245.02 8.72183 1243.45 5.92879 1249.2 5.33391C1253.29 4.91 1258.77 6.29311 1262.57 6.77319C1265.57 7.15225 1268.48 7.30231 1271.55 7.50737C1274.85 7.72244 1277.7 9.3595 1281.17 8.63757C1283.46 8.16062 1284.2 6.97464 1286.93 6.75469C1290.59 6.46677 1294.87 7.75786 1297.38 8.74991C1302.63 10.821 1305.78 12.9571 1313.58 12.9622C1319.07 12.9664 1324.31 12.0025 1329.8 12.0126C1332.45 12.0176 1334.98 12.2627 1337.22 12.8977C1339.22 13.4638 1341.92 15.7788 1344.1 15.6729C1344.82 14.4229 1345.47 12.9319 1347.61 11.9449C1350.02 10.831 1350.33 11.491 1352.69 12.0281C1355.52 12.6711 1356.59 11.7881 1359.36 11.8132C1362.41 11.8403 1361.91 13.3032 1364.26 13.4333C1366.98 13.5843 1367.37 11.9354 1369.85 12.9034C1370.73 13.2444 1372.03 14.6665 1372.43 15.1705C1373.03 15.9225 1372.47 17.4395 1375.26 17.3985C1376.78 17.3805 1377.64 15.9876 1379.18 15.8126C1383.5 15.3267 1382.55 18.3537 1382.95 19.5147C1383.12 20.0007 1383.75 21.5647 1385.62 21.2687C1387.04 21.0488 1386.73 20.2318 1387.19 19.7628C1389.11 17.8248 1392.53 16.2009 1393.97 14.1699C1394.37 13.6069 1394.2 12.3909 1395.21 11.9569C1396.42 11.439 1398.46 11.564 1399 12.303C1400.94 11.506 1399.59 9.82102 1402.81 9.36709C1403.46 9.9861 1404.5 10.4811 1405.81 10.6681C1406.24 9.11116 1407.15 8.15917 1408.6 6.7562C1409.49 5.89422 1409.43 4.37922 1411.37 4.12326C1412.11 4.15928 1412.83 4.21329 1413.56 4.27631C1415.6 4.78735 1417 6.56738 1418.73 7.20841C1425.44 9.68555 1426.83 7.07558 1431.88 5.74269C1434.5 5.75774 1437.12 5.69379 1439.73 5.56785C1441.42 5.99588 1442.94 6.68091 1444.59 7.35395C1446.81 8.25799 1447.76 8.74801 1450.62 8.68607C1453.31 8.63013 1455.52 7.60518 1458.43 8.16424C1461.09 8.67729 1461.05 9.62529 1462.69 10.6503C1463.96 10.3663 1467.15 9.29642 1468.48 9.22944C1470.86 9.10649 1470.81 9.38749 1472.06 10.5745C1472.97 11.4435 1472.71 11.4085 1474.02 11.8956C1475.1 12.2956 1476.17 12.7016 1477.26 13.1356C1479.14 13.8917 1481.28 14.2017 1483.23 14.6417C1485.92 15.2508 1488.17 15.5438 1490.85 16.0649C1493.48 16.573 1495.96 17.886 1498.57 18.5261C1501.16 19.1631 1503.75 19.0622 1506.36 19.4592C1509.14 19.8833 1511.63 21.3823 1514.32 22.1474C1516.83 22.8574 1518.9 24.7305 1521.57 24.6975C1522.52 24.6866 1523.61 24.8476 1524.54 24.7236C1525.56 24.5876 1525.96 24.1166 1526.71 23.9326C1527.64 23.7017 1528.53 23.8307 1529.47 23.5247C1530.34 23.2337 1530.91 22.2107 1531.63 21.9457C1533.46 21.2708 1535.52 22.2458 1537.36 21.7999C1538.25 21.5849 1538.33 20.9309 1539.22 20.7149C1540.11 20.4979 1541.31 20.8339 1542.23 20.788C1544.65 20.665 1546.59 19.7631 1549.16 19.7851C1553.24 19.8212 1556.18 19.1963 1559.93 17.8113C1562.15 16.9924 1563.6 15.7614 1565.62 14.5674C1567.1 13.6855 1568.83 13.2255 1570.53 12.6546C1572.1 12.1316 1573.91 11.5976 1575.67 11.1487C1576.71 10.8827 1577.69 11.2117 1578.67 10.9837C1579.56 10.7777 1579.64 10.1057 1580.52 9.89076C1581.68 9.60378 1583.06 9.99581 1584.31 9.72284C1588.02 8.90791 1590.43 6.82596 1594.3 7.69204C1595.59 7.97907 1596.96 8.5211 1598.28 8.55112C1600.08 8.59316 1601.4 7.57219 1603.11 7.35122C1604.72 7.14226 1607.12 7.33631 1608.68 7.53134C1608.03 10.9433 1614.57 7.74846 1616.78 7.51351C1617.84 7.39953 1618.97 7.32955 1620.01 7.56657C1620.71 7.72159 1621.7 8.54461 1622.3 8.58162C1623.6 8.66365 1626.15 7.5067 1627.53 7.02073C1630.89 5.8398 1632 1.86582 1635.63 1.04189C1639.41 0.181973 1644.56 1.09208 1648.47 1.09216C1652.73 1.09225 1656.99 1.10234 1661.26 1.09243C1662.44 1.08945 1664.11 0.768483 1665.24 1.04251C1666.13 1.25652 1666.21 1.91853 1667.11 2.12654C1668.06 2.35056 1669.15 1.86159 1670.11 2.02661C1671.2 2.21463 1671.97 2.92465 1673.06 3.10967C1674.4 3.3377 1675.63 2.92172 1677 3.27875C1678.17 3.58477 1678.68 3.99778 1679.95 4.06681C1681.87 4.17085 1683.93 4.16589 1685.8 3.82493C1686.66 3.33495 1687.59 3.06097 1688.58 3.00499C1689.33 3.032 1690.09 3.06802 1690.84 3.11404C1691.71 2.90005 1691.81 2.24206 1692.68 2.02707C1694.39 1.60911 1696.87 2.07716 1698.64 2.0772C1702.6 2.07728 1707.02 1.58037 1710.47 3.03244C1712.2 3.75748 1713.64 4.85651 1715.34 5.76654C1716.82 6.56357 1718.14 7.9696 1719.74 8.51563C1721.38 9.07367 1722.79 8.9027 1724.41 9.82973C1726.86 11.2338 1729.28 12.6758 1732.18 12.5839C1735.99 12.462 1739.67 11.088 1743.49 10.9741C1747.19 10.8662 1750.12 9.95326 1753.67 9.27034C1755.67 8.88338 1757.73 9.37442 1759.69 9.01146C1761.66 8.6485 1763.85 7.77954 1765.8 7.21259C1766.8 6.92261 1768.53 6.31664 1769.49 6.20766C1771.18 6.0137 1770.39 6.38568 1771.65 6.75871C1773.57 7.32575 1775.86 8.40779 1777.56 8.74383C1782.35 9.69493 1787.07 9.98202 1792.09 9.94713C1795.43 9.9242 1798.36 11.3823 1801.4 12.5713C1804.23 13.6784 1806.42 13.4944 1809.44 13.3805C1816.74 13.1026 1823.92 15.5038 1831.19 13.8179C1839.98 11.7791 1847.15 13.7733 1856.04 12.9514C1863.55 12.2546 1868.27 8.5757 1875.57 11.9989C1881.25 14.669 1881.47 18.171 1889.31 16.6281C1891.97 16.1072 1891.96 16.5472 1894.2 17.0222C1896.32 17.4673 1897.24 17.2523 1899.39 16.9903C1902.77 16.5744 1904.77 18.0555 1908 18.0135C1911.84 17.9626 1911.35 16.4286 1913.21 15.4006C1914.83 17.3937 1917.01 18.5747 1920 19.1828L1920 0.0807705L-0.0229227 0.0411047L-0.0230622 6.79411C1.11993 6.98813 2.23289 7.26415 3.83789 7.39618Z" fill="white"/>
</g>
<defs>
<clipPath id="clip0_255_1695">
<rect width="1920.02" height="24.9591" fill="white" transform="translate(1920 25) rotate(180)"/>
</clipPath>
</defs>
</svg>
