<svg width="23" height="23" viewBox="0 0 23 23" fill="none" xmlns="http://www.w3.org/2000/svg">
<g clip-path="url(#clip0_16_312)">
<path d="M13.7757 0.111328H9.21948C4.82289 0.111328 1.24609 3.68813 1.24609 8.08472V11.5019C1.24609 14.5886 3.02626 17.3897 5.80231 18.7073V22.5127C5.80231 22.8432 6.21565 23.0159 6.45046 22.7812L9.75637 19.4753H13.7757C18.1722 19.4753 21.749 15.8985 21.749 11.5019V8.08472C21.749 3.68813 18.1722 0.111328 13.7757 0.111328Z" fill="#665CAC"/>
<path d="M14.7791 14.0753L14.5259 12.7034C14.5049 12.5901 14.4171 12.5009 14.3041 12.4783L12.3123 12.08C12.2198 12.0615 12.1245 12.0904 12.0578 12.157L11.2487 12.9662C9.88526 12.3553 9.12857 11.597 8.46278 10.1751L9.26937 9.36852C9.33595 9.30192 9.36486 9.2064 9.34641 9.11405L8.94806 7.12223C8.92545 7.00925 8.83631 6.92139 8.72297 6.90047L7.35106 6.64725C7.3135 6.64035 7.27481 6.64108 7.23752 6.64956C6.87528 6.73184 6.54476 6.91436 6.28167 7.17751C5.82613 7.63306 5.65203 8.29779 5.77824 9.09986C5.9901 10.4467 6.64995 12.321 7.86736 13.5433L7.884 13.5598C9.10534 14.7764 10.9797 15.4363 12.3266 15.6482C12.4963 15.6749 12.6597 15.6881 12.8164 15.6881C13.4004 15.6881 13.8897 15.5039 14.249 15.1447C14.5121 14.8816 14.6947 14.5511 14.7769 14.1889C14.7853 14.1516 14.7861 14.1129 14.7791 14.0753Z" fill="white"/>
<path d="M12.0328 7.14258C11.8453 7.14258 11.6934 7.29456 11.6934 7.48202C11.6934 7.66949 11.8453 7.82147 12.0328 7.82147C12.7815 7.82147 13.3907 8.43059 13.3907 9.17933C13.3907 9.36428 13.5452 9.51877 13.7301 9.51877C13.9151 9.51877 14.0696 9.36428 14.0696 9.17933C14.0696 8.05622 13.1559 7.14258 12.0328 7.14258Z" fill="white"/>
<path d="M12.0344 5.78418C11.9089 5.78418 11.7822 5.79114 11.6577 5.80486C11.4714 5.82543 11.337 5.99316 11.3575 6.17955C11.3781 6.36594 11.5462 6.49998 11.7322 6.47974C11.832 6.46872 11.9337 6.46311 12.0344 6.46311C13.5319 6.46311 14.7501 7.68136 14.7501 9.17879C14.7501 9.27962 14.7445 9.38129 14.7335 9.48104C14.7132 9.66485 14.8498 9.83548 15.0337 9.85573C15.2175 9.87598 15.388 9.73943 15.4084 9.55554C15.4221 9.43112 15.4291 9.3044 15.4291 9.17879C15.4291 7.30703 13.9062 5.78418 12.0344 5.78418Z" fill="white"/>
<path d="M12.0344 4.42676C11.9131 4.42676 11.7902 4.43137 11.6693 4.44056C11.4824 4.45472 11.3423 4.6178 11.3565 4.80471C11.3706 4.99165 11.5342 5.13174 11.7206 5.11758C11.8245 5.10967 11.9301 5.10569 12.0344 5.10569C14.2806 5.10569 16.108 6.93306 16.108 9.17923C16.108 9.49703 16.0713 9.81341 15.999 10.1195C15.9575 10.2949 16.0655 10.4773 16.2395 10.5249C16.4225 10.575 16.6161 10.4603 16.6597 10.2757C16.7441 9.91846 16.7869 9.54958 16.7869 9.17923C16.7869 6.55869 14.655 4.42676 12.0344 4.42676Z" fill="white"/>
</g>
<defs>
<clipPath id="clip0_16_312">
<rect width="23" height="23" fill="white"/>
</clipPath>
</defs>
</svg>
