<svg width="25" height="26" viewBox="0 0 25 26" fill="none" xmlns="http://www.w3.org/2000/svg">
<g clip-path="url(#clip0_16_401)">
<path d="M0.533447 12.4467C0.532861 14.5636 1.08599 16.6306 2.13774 18.4524L0.432861 24.6772L6.80317 23.0069C8.56512 23.9661 10.5392 24.4687 12.5454 24.4688H12.5506C19.1732 24.4688 24.5641 19.0799 24.5669 12.4562C24.5682 9.24648 23.3194 6.22832 21.0504 3.95762C18.7819 1.68711 15.7648 0.436035 12.5501 0.43457C5.92681 0.43457 0.536279 5.82324 0.533545 12.4467" fill="url(#paint0_linear_16_401)"/>
<path d="M0.104492 12.443C0.103809 14.636 0.676758 16.777 1.76602 18.6641L0 25.112L6.59873 23.3818C8.41689 24.3731 10.464 24.8958 12.547 24.8966H12.5523C19.4125 24.8966 24.9971 19.3138 25 12.4529C25.0012 9.12793 23.7074 6.00127 21.3574 3.64922C19.0071 1.29746 15.8821 0.00136719 12.5523 0C5.69101 0 0.107227 5.58203 0.104492 12.443ZM4.03418 18.3391L3.78779 17.948C2.75205 16.3011 2.20537 14.3979 2.20615 12.4438C2.2084 6.74111 6.84941 2.10156 12.5563 2.10156C15.3199 2.10273 17.9172 3.18008 19.8707 5.13477C21.8241 7.08965 22.899 9.68828 22.8983 12.4521C22.8958 18.1548 18.2547 22.7949 12.5523 22.7949H12.5482C10.6915 22.7939 8.87051 22.2953 7.28242 21.353L6.90449 21.1289L2.98867 22.1556L4.03418 18.339V18.3391Z" fill="url(#paint1_linear_16_401)"/>
<path d="M9.44116 7.24117C9.20815 6.7233 8.96294 6.71285 8.74136 6.70377C8.55991 6.69596 8.35249 6.69654 8.14526 6.69654C7.93784 6.69654 7.60083 6.77457 7.31597 7.08561C7.03081 7.39693 6.22729 8.14928 6.22729 9.67945C6.22729 11.2097 7.34185 12.6885 7.49722 12.8963C7.65278 13.1036 9.64888 16.3442 12.8102 17.5909C15.4375 18.6269 15.9722 18.4209 16.5424 18.3689C17.1127 18.3171 18.3827 17.6168 18.6417 16.8905C18.901 16.1643 18.901 15.5419 18.8233 15.4118C18.7456 15.2822 18.5381 15.2044 18.2271 15.0489C17.916 14.8933 16.3869 14.1409 16.1018 14.0371C15.8166 13.9334 15.6093 13.8816 15.4019 14.193C15.1945 14.504 14.5989 15.2044 14.4173 15.4118C14.236 15.6197 14.0544 15.6456 13.7435 15.49C13.4323 15.3339 12.4306 15.0059 11.2422 13.9464C10.3176 13.122 9.69341 12.104 9.51196 11.7925C9.33052 11.4816 9.49253 11.313 9.64849 11.1581C9.78823 11.0187 9.95962 10.7949 10.1153 10.6133C10.2704 10.4317 10.3221 10.3021 10.4258 10.0947C10.5296 9.88707 10.4777 9.70543 10.4 9.54986C10.3221 9.3943 9.71772 7.85611 9.44116 7.24117Z" fill="white"/>
</g>
<defs>
<linearGradient id="paint0_linear_16_401" x1="1207.14" y1="2424.7" x2="1207.14" y2="0.43457" gradientUnits="userSpaceOnUse">
<stop stop-color="#1FAF38"/>
<stop offset="1" stop-color="#60D669"/>
</linearGradient>
<linearGradient id="paint1_linear_16_401" x1="1250" y1="2511.2" x2="1250" y2="0" gradientUnits="userSpaceOnUse">
<stop stop-color="#F9F9F9"/>
<stop offset="1" stop-color="white"/>
</linearGradient>
<clipPath id="clip0_16_401">
<rect width="25" height="25.1953" fill="white"/>
</clipPath>
</defs>
</svg>
